<svg width="1024" height="1024" viewBox="0 0 1024 1024" fill="none" xmlns="http://www.w3.org/2000/svg">
  <rect width="1024" height="1024" rx="184" fill="#0C0E12"/>
  <rect x="96" y="96" width="832" height="832" rx="132" fill="#171B24" stroke="#4DD7FF" stroke-width="28"/>
  <path d="M526.4 720C400.3 720 342 668.8 342 574.1V565.8H436.1V572.2C436.1 619.5 453.4 633 530.9 633C585.3 633 598.7 622.1 598.7 593.3C598.7 564.5 592.3 554.2 532.2 544L456.6 530.6C374.7 516.5 340.1 474.9 340.1 408.3C340.1 343 388.1 278.4 511 278.4C633.2 278.4 684.4 341.8 684.4 426.9V432H589.7V425C589.7 380.2 571.1 365.4 507.8 365.4C452.8 365.4 435.5 377.6 435.5 404.5C435.5 432 447 438.4 496.9 448L573.1 462.7C663.4 480 694.1 527.4 694.1 590.1C694.1 658.6 648 720 526.4 720Z" fill="white"/>
  <path d="M215 205C215 179.6 235.6 159 261 159H335" stroke="#FFCF5A" stroke-width="24" stroke-linecap="round"/>
  <path d="M809 819C809 844.4 788.4 865 763 865H689" stroke="#FFCF5A" stroke-width="24" stroke-linecap="round"/>
</svg>
